<svg xml:space="preserve" style="enable-background:new 0 0 1000 1000;" viewBox="0 0 1000 1000" y="0px" x="0px" xmlns:xlink="http://www.w3.org/1999/xlink" xmlns="http://www.w3.org/2000/svg" id="图层_1" version="1.1">
<style type="text/css">
	.st0{fill:#FDDCDC;stroke:#FD9F9F;stroke-width:12.134;stroke-linecap:round;stroke-linejoin:round;stroke-miterlimit:10;}
	.st1{fill:#FDC8C8;stroke:#FD9292;stroke-width:12.134;stroke-linecap:round;stroke-linejoin:round;stroke-miterlimit:10;}
	.st2{fill:#FDF566;stroke:#FDA76E;stroke-width:12.134;stroke-linecap:round;stroke-linejoin:round;stroke-miterlimit:10;}
	.st3{fill:#FD8DC5;}
	.st4{fill:#53639C;stroke:#233760;stroke-width:12.134;stroke-linecap:round;stroke-linejoin:round;stroke-miterlimit:10;}
	.st5{fill:#FD6487;}
	.st6{fill:none;stroke:#2AE9FD;stroke-width:12.134;stroke-linecap:round;stroke-linejoin:round;stroke-miterlimit:10;}
	
		.st7{opacity:0.83;fill:#FFFFFF;stroke:#2AE9FD;stroke-width:12.134;stroke-linecap:round;stroke-linejoin:round;stroke-miterlimit:10;}
	.st8{fill:#53639C;}
	.st9{fill:#233760;}
	.st10{fill:#FDDCDC;}
	.st11{fill:#FD9F9F;}
	.st12{fill:#FDC8C8;}
	.st13{fill:#FD9595;}
	.st14{fill:#FFFFFF;}
	.st15{fill:#FD92C5;}
	.st16{fill:#FD5FA3;}
	.st17{fill:#FD276A;}
	.st18{fill:#E3875A;}
	.st19{fill:#8A4B3B;}
	.st20{fill:#AC7574;}
	.st21{fill:#5B3D37;}
	.st22{fill:#C9F1FD;}
	.st23{fill:#65B3FD;}
	.st24{fill:#5FCCFD;}
	.st25{fill:#FD366B;}
	.st26{fill:#3F3F3F;}
	.st27{fill:#BFFDCE;}
	.st28{fill:#57CF87;}
	.st29{fill:#E83475;}
	.st30{fill:#FD8DC7;}
	.st31{fill:#FD5F9A;}
	.st32{fill:#95FDB8;}
	.st33{fill:#39B069;}
	.st34{fill:#3A3A3A;}
	.st35{fill:#53639C;stroke:#FD366B;stroke-width:35.7123;stroke-miterlimit:10;}
	.st36{fill:#FD667F;stroke:#FD366B;stroke-width:35.7123;stroke-linecap:round;stroke-linejoin:round;stroke-miterlimit:10;}
	.st37{fill:none;stroke:#FD366B;stroke-width:35.7123;stroke-linecap:round;stroke-linejoin:round;stroke-miterlimit:10;}
	.st38{fill:#FFFFFF;stroke:#3A3A3A;stroke-width:35.7123;stroke-miterlimit:10;}
	.st39{fill:#FCDF64;}
	.st40{fill:#545454;}
	.st41{fill:#FDF566;}
	.st42{fill:#FDA76E;}
	.st43{fill:#FD5758;}
	.st44{fill:#08C247;}
	.st45{fill:#FD7C4B;}
	.st46{fill:#FDEB83;}
	.st47{fill:#25E362;}
	.st48{fill:#FD3D4B;}
	.st49{fill:#FD9798;}
	.st50{fill:#43B1FD;}
	.st51{fill:#FD5598;}
	.st52{fill:#FA3D80;}
	.st53{fill:#FFFD5F;}
	.st54{fill:#FD69A4;}
	.st55{fill:#84D1FD;stroke:#62BCFD;stroke-width:16.6441;stroke-linecap:round;stroke-linejoin:round;stroke-miterlimit:10;}
	.st56{fill:none;stroke:#3A3A3A;stroke-width:7.322;stroke-linecap:round;stroke-linejoin:round;stroke-miterlimit:10;}
	.st57{fill:#FD8DC7;stroke:#FD5F9A;stroke-width:7.322;stroke-linecap:round;stroke-linejoin:round;stroke-miterlimit:10;}
	.st58{fill:#FFFFFF;stroke:#84D1FD;stroke-width:7.322;stroke-linecap:round;stroke-linejoin:round;stroke-miterlimit:10;}
	.st59{fill:#B9EBFD;stroke:#84D1FD;stroke-width:7.322;stroke-linecap:round;stroke-linejoin:round;stroke-miterlimit:10;}
	.st60{fill:#BFF3FF;stroke:#00D0FF;stroke-width:13.0018;stroke-linecap:round;stroke-linejoin:round;stroke-miterlimit:10;}
	.st61{fill:#00D0FF;stroke:#BFF3FF;stroke-width:13.0018;stroke-linecap:round;stroke-linejoin:round;stroke-miterlimit:10;}
</style>
<g>
	<g>
		<g>
			<g>
				<path d="M739.63,670.78c0,0,15.25-239.48,109.39-216.21C943.16,477.83,739.63,670.78,739.63,670.78z" class="st27"></path>
				<g>
					<path d="M748.48,670.78c0.15-2.27,0.34-4.55,0.53-6.82c0.53-6.11,1.15-12.21,1.85-18.3
						c0.54-4.74,1.13-9.47,1.77-14.19c-0.11,0.78-0.21,1.57-0.32,2.35c0.93-6.94,1.96-13.87,3.1-20.77
						c1.26-7.7,2.66-15.38,4.2-23.03c1.63-8.06,3.42-16.09,5.42-24.08c2.04-8.15,4.29-16.25,6.82-24.26
						c2.48-7.85,5.22-15.62,8.33-23.25c0.37-0.91,0.75-1.82,1.13-2.73c-0.3,0.71-0.6,1.41-0.89,2.12
						c4.17-9.86,8.97-19.49,14.89-28.43c1.55-2.34,3.17-4.62,4.88-6.84c-0.46,0.6-0.92,1.19-1.38,1.79
						c4.13-5.33,8.77-10.28,14.11-14.41c-0.6,0.46-1.19,0.92-1.79,1.38c3.68-2.84,7.67-5.26,11.95-7.08
						c-0.71,0.3-1.41,0.6-2.12,0.89c3.72-1.57,7.62-2.65,11.62-3.2c-0.78,0.11-1.57,0.21-2.35,0.32c4.27-0.57,8.59-0.53,12.85,0.04
						c-0.78-0.11-1.57-0.21-2.35-0.32c4.54,0.62,9.04,1.76,13.27,3.53c-0.71-0.3-1.41-0.6-2.12-0.89c2.68,1.13,5.24,2.54,7.55,4.32
						c-0.6-0.46-1.19-0.92-1.79-1.38c1.72,1.34,3.28,2.86,4.62,4.59c-0.46-0.6-0.92-1.19-1.38-1.79c1.27,1.66,2.32,3.46,3.14,5.39
						c-0.3-0.71-0.6-1.41-0.89-2.12c0.97,2.31,1.58,4.74,1.92,7.22c-0.11-0.78-0.21-1.57-0.32-2.35c0.48,3.67,0.35,7.39-0.14,11.05
						c0.11-0.78,0.21-1.57,0.32-2.35c-0.78,5.7-2.4,11.27-4.4,16.66c-0.63,1.69-1.3,3.37-2,5.04c0.3-0.71,0.6-1.41,0.89-2.12
						c-3.45,8.15-7.66,15.97-12.2,23.56c-5.1,8.52-10.65,16.77-16.46,24.83c-3.42,4.75-6.93,9.44-10.51,14.07
						c0.46-0.6,0.92-1.19,1.38-1.79c-7.58,9.8-15.46,19.37-23.54,28.76c-7.59,8.82-15.36,17.49-23.27,26.02
						c-6.66,7.19-13.41,14.28-20.26,21.29c-4.84,4.95-9.73,9.86-14.67,14.72c-2.13,2.09-4.32,4.12-6.42,6.23
						c-0.03,0.03-0.06,0.05-0.09,0.08c-3.37,3.19-3.46,9.35,0,12.52c3.61,3.32,8.93,3.41,12.52,0c1.68-1.59,3.34-3.21,5-4.83
						c4.48-4.38,8.92-8.81,13.32-13.28c6.43-6.54,12.79-13.15,19.06-19.84c7.58-8.09,15.03-16.3,22.34-24.63
						c7.94-9.06,15.7-18.29,23.21-27.72c7.9-9.93,15.57-20.05,22.75-30.52c6.24-9.09,12.13-18.44,17.26-28.21
						c4.64-8.83,8.83-18.11,11.44-27.76c2.3-8.54,3.29-17.48,1.52-26.21c-0.76-3.74-2.23-7.48-4.25-10.71
						c-2.54-4.07-5.75-7.18-9.56-10.02c-3.58-2.66-7.79-4.49-11.99-5.94c-5.04-1.74-10.38-2.68-15.68-3.11
						c-10.14-0.81-20.27,1.55-29.29,6.14c-8.65,4.4-16.2,11.12-22.39,18.53c-7.12,8.53-12.99,17.95-17.94,27.87
						c-5.46,10.96-9.99,22.41-13.89,34c-3.85,11.45-7.09,23.11-9.91,34.86c-2.73,11.35-5.06,22.79-7.1,34.29
						c-1.92,10.81-3.54,21.67-4.98,32.55c-1.03,7.78-1.95,15.58-2.73,23.39c-0.44,4.39-0.84,8.77-1.16,13.17
						c-0.04,0.57-0.08,1.13-0.12,1.7c-0.3,4.63,4.28,9.06,8.86,8.86C744.68,679.41,748.17,675.75,748.48,670.78z" class="st47"></path>
				</g>
			</g>
			<g>
				<path d="M849.57,455.91c0,0-72.91,72.01-109.94,214.88" class="st27"></path>
				<g>
					<path d="M845.18,451.52c-2.67,2.64-5.15,5.48-7.6,8.31c-7.15,8.27-13.85,16.94-20.24,25.81
						c-9.49,13.18-18.23,26.91-26.3,41c-10.67,18.62-20.17,37.91-28.55,57.66c-10.32,24.31-19.07,49.25-26.13,74.71
						c-0.93,3.36-1.84,6.74-2.71,10.12c-0.81,3.13,1.03,6.88,4.33,7.63c3.24,0.74,6.75-0.97,7.63-4.33
						c6.67-25.7,14.97-50.97,24.98-75.56c0.53-1.31,1.07-2.61,1.61-3.92c0.29-0.71,0.59-1.41,0.88-2.11
						c0.53-1.27-0.57,1.34-0.03,0.08c0.15-0.35,0.3-0.7,0.44-1.05c1.17-2.75,2.36-5.48,3.58-8.21c2.29-5.14,4.65-10.25,7.09-15.31
						c4.45-9.23,9.16-18.34,14.13-27.3c8.2-14.78,17.11-29.17,26.82-43c1.93-2.76,3.9-5.49,5.9-8.2c0.9-1.22,1.81-2.43,2.72-3.64
						c0.46-0.6,0.91-1.2,1.37-1.8c0.19-0.24,0.37-0.49,0.56-0.73c0.96-1.24-1.04,1.34-0.08,0.11c2.94-3.79,5.96-7.52,9.06-11.18
						c2.96-3.49,6.05-6.86,9.19-10.19c0.04-0.04,0.08-0.08,0.12-0.12c2.31-2.28,2.46-6.51,0-8.77
						C851.46,449.24,847.65,449.09,845.18,451.52L845.18,451.52z" class="st47"></path>
				</g>
			</g>
		</g>
		<g>
			<g>
				<g>
					<path d="M581.52,890.53c4.5,1.34,9.57,0.28,13.19-3.21c45.61-44.12,80.01-96.2,102.23-154.8
						c17.73-46.75,27.76-97.68,29.83-151.38c3.5-91.23-17.03-158.24-17.9-161.05c-2.21-7.08-9.73-11.03-16.81-8.82
						c-7.08,2.21-11.03,9.73-8.82,16.81c0.3,0.99,20.15,66.35,16.67,152.94c-2.04,50.65-11.55,98.59-28.26,142.49
						c-20.81,54.66-52.98,103.28-95.59,144.5c-5.33,5.15-5.47,13.65-0.32,18.98C577.38,888.72,579.38,889.9,581.52,890.53z" class="st27"></path>
					<g>
						<path d="M579.16,899.07c5.9,1.6,12.42,0.93,17.68-2.3c4.41-2.7,8.04-6.99,11.65-10.65
							c7.01-7.11,13.77-14.46,20.28-22.03c13.18-15.35,25.36-31.6,36.3-48.62c22.03-34.28,38.99-71.83,50.63-110.86
							c12.61-42.26,19.01-86.38,20.14-130.43c0.97-38.03-1.98-76.2-8.64-113.65c-1.91-10.75-4.14-21.45-6.83-32.03
							c-1.66-6.54-3.06-13.69-7.51-18.97c-6.99-8.3-20.08-10.22-29.07-4.02c-8.17,5.64-11.75,15.51-9.05,25.08
							c1.46,5.16,2.81,10.34,4.03,15.56c2.88,12.4,5.2,24.92,7.08,37.51c0.27,1.83,0.54,3.66,0.79,5.5c0.08,0.55,0.16,1.1,0.23,1.66
							c-0.03-0.27-0.26-2-0.05-0.34c0.15,1.14,0.3,2.28,0.44,3.42c0.57,4.54,1.08,9.08,1.53,13.63c0.97,9.73,1.68,19.48,2.12,29.24
							c0.99,21.97,0.63,44.01-1.21,65.93c-0.45,5.35-0.98,10.69-1.61,16.01c-0.17,1.47-0.35,2.94-0.54,4.41
							c-0.07,0.53-0.47,3.56-0.26,2.04c-0.4,2.92-0.82,5.83-1.28,8.74c-1.66,10.64-3.69,21.22-6.1,31.72
							c-4.7,20.44-10.87,40.55-18.57,60.07c-0.89,2.25-1.8,4.49-2.73,6.73c-0.21,0.5-0.41,0.99-0.62,1.49
							c0.61-1.46,0.07-0.17-0.05,0.11c-0.53,1.23-1.06,2.46-1.6,3.69c-2.05,4.66-4.18,9.27-6.41,13.84
							c-4.32,8.88-8.97,17.59-13.95,26.12c-4.97,8.52-10.27,16.86-15.87,24.98c-2.81,4.07-5.69,8.09-8.65,12.05
							c-0.72,0.97-1.45,1.93-2.17,2.89c-0.32,0.42-2.06,2.67-1.06,1.39c-1.65,2.12-3.31,4.22-5,6.3
							c-6.28,7.75-12.85,15.27-19.69,22.54c-3.45,3.66-6.96,7.26-10.54,10.8c-3.97,3.92-7.69,7.7-9.15,13.29
							C560.74,883.74,567.77,895.33,579.16,899.07c4.4,1.45,9.87-1.68,10.89-6.19c1.11-4.87-1.47-9.34-6.19-10.89
							c-2.11-0.7,0.77,0.68-0.3-0.1c-0.4-0.29-0.88-0.53-1.3-0.78c-0.11-0.07-0.21-0.14-0.32-0.22c0.78,0.58,0.79,0.53,0.03-0.15
							c-0.34-0.11-1.02-1.54,0.07,0.22c-0.23-0.37-0.48-0.76-0.72-1.13c-1.04-1.57,0.25,0.24,0.05,0.33
							c-0.02,0.01-0.37-1.08-0.41-1.24c-0.57-2.05,0.24-0.52-0.13-0.19c0.01-0.01-0.02-1.12-0.04-1.29
							c-0.21-1.97-0.38,1.26-0.09,0.11c0.11-0.42,0.18-0.84,0.3-1.26c0.03-0.1,0.06-0.21,0.09-0.31c0.33-0.92,0.27-0.82-0.17,0.3
							c-0.05-0.65,1.95-2.56,0.43-1c0.89-0.91,1.79-1.82,2.7-2.72c6.98-6.83,13.72-13.91,20.2-21.22
							c13.02-14.7,25.04-30.34,35.84-46.73c21.67-32.91,38.3-69.14,49.63-106.86c12.3-40.92,18.42-83.72,19.32-126.41
							c0.77-36.44-2.3-73.01-8.86-108.86c-1.79-9.77-3.85-19.5-6.32-29.13c-0.56-2.19-1.15-4.37-1.78-6.54
							c-0.1-0.36-0.22-0.71-0.32-1.07c-0.01-0.04-0.19-0.8-0.26-0.98c-0.45-1.14,0.03,1.63,0.01,0.42c-0.01-0.53-0.01-1.08-0.04-1.6
							c-0.08-1.45-0.08,0.5-0.11,0.47c-0.17-0.22,0.45-2.2,0.68-2.41c-0.74,0.69-0.64,1.19-0.1,0.42c0.2-0.36,0.42-0.72,0.66-1.06
							c-0.21,0.26-0.42,0.53-0.63,0.79c0.05-0.22,0.65-0.73,0.85-0.93c0.17-0.17,1.69-1.19,0.55-0.54c-1.07,0.61,0.17-0.05,0.44-0.2
							c0.79-0.46,1.01-1.16-0.04-0.08c0.18-0.18,1.12-0.34,1.28-0.4c1.03-0.35,0.55,0.35-0.42-0.04c0.2,0.08,1-0.07,1.29-0.08
							c0.43,0,0.85,0.01,1.27,0.05c-0.37-0.05-0.73-0.1-1.1-0.15c0.38-0.33,3.16,1.29,1.93,0.48c-1.05-0.68,0.04,0.09,0.34,0.25
							c0.78,0.43,1.51,0.29,0-0.13c0.41,0.11,1.63,1.37,1.78,1.78c-0.48-1.38-0.6-0.85-0.27-0.23c0.17,0.28,0.33,0.56,0.47,0.85
							c0.29,0.58,0.21,0.38-0.23-0.61c0.1-0.02,1.25,4.16,1.3,4.32c2.13,7.56,3.93,15.22,5.57,22.9c1.3,6.13,2.48,12.29,3.55,18.47
							c0.6,3.48,1.17,6.97,1.7,10.47c0.29,1.91,0.57,3.83,0.85,5.74c0.12,0.88,0.24,1.75,0.37,2.63c0.31,2.19-0.18-1.43,0-0.02
							c0.07,0.56,0.15,1.13,0.22,1.69c2.38,18.42,3.85,36.95,4.41,55.51c0.64,21.42,0.06,42.89-1.85,64.23
							c-0.48,5.34-1.04,10.67-1.68,15.99c-0.16,1.32-0.33,2.65-0.5,3.97c-0.08,0.59-0.15,1.17-0.23,1.76
							c0.2-1.46-0.01,0.04-0.04,0.28c-0.39,2.77-0.79,5.54-1.22,8.31c-1.6,10.23-3.51,20.42-5.77,30.53
							c-4.48,20.1-10.29,39.9-17.48,59.19c-1.7,4.57-3.48,9.11-5.34,13.62c-0.41,0.99-0.82,1.98-1.24,2.97
							c0.65-1.54-0.04,0.09-0.21,0.47c-0.21,0.49-0.42,0.98-0.64,1.47c-1.01,2.33-2.04,4.65-3.09,6.96
							c-3.97,8.74-8.24,17.34-12.8,25.78c-9.04,16.74-19.22,32.86-30.44,48.21c-1.34,1.83-2.69,3.65-4.06,5.46
							c-0.64,0.85-1.29,1.7-1.94,2.55c-1.56,2.04,0.63-0.79-0.33,0.43c-0.41,0.52-0.82,1.05-1.23,1.58
							c-2.98,3.79-6.02,7.53-9.13,11.21c-6.25,7.42-12.75,14.62-19.48,21.6c-3.2,3.32-6.46,6.59-9.76,9.81
							c-0.47,0.46-1.02,0.89-1.45,1.39c-0.78,0.92,1.11-0.54,0.05-0.03c-0.53,0.26-1.03,0.62-1.57,0.88
							c0.39-0.19,1.59-0.45,0.13-0.14c-0.23,0.05-1.25,0.42-1.37,0.32c0.06,0.05,1.69-0.04,0.27-0.11c-0.18-0.01-1.16,0.09-1.4-0.04
							c0.32,0.04,0.64,0.09,0.97,0.13c-0.46-0.09-0.92-0.2-1.36-0.33c-4.47-1.21-9.83,1.51-10.89,6.19
							C571.91,892.84,574.38,897.78,579.16,899.07z" class="st47"></path>
					</g>
				</g>
			</g>
			<g>
				<path d="M621.23,318.86c2.32,0.69,4.55,1.54,6.69,2.53c-1.17-7.25-0.76-14.87,1.48-22.37
					c7.96-26.65,36.01-41.8,62.65-33.84c10.42,3.11,19.09,9.3,25.3,17.28c8.86-9.2,22.43-13.25,35.51-9.34
					c18.66,5.57,29.27,25.22,23.7,43.88c-5.57,18.66-25.22,29.27-43.88,23.7c-3.66-1.09-7-2.73-9.98-4.78
					c-10.71,21.52-35.64,32.87-59.46,25.76c-2.32-0.69-4.55-1.54-6.69-2.53c1.17,7.25,0.76,14.87-1.48,22.37
					c-7.96,26.65-36.01,41.8-62.65,33.84c-26.65-7.96-41.8-36.01-33.84-62.65S594.59,310.91,621.23,318.86z" class="st51"></path>
				<g>
					<path d="M618.88,327.4c1.72,0.52,3.41,1.13,5.07,1.81c-0.71-0.3-1.41-0.6-2.12-0.89
						c0.54,0.23,1.08,0.47,1.62,0.71c1.43,0.65,2.87,1.21,4.47,1.21c1.97,0,3.83-0.71,5.37-1.9c1.25-0.97,2.11-2.09,2.73-3.54
						c0.83-1.97,0.78-3.65,0.45-5.77c-0.07-0.45-0.14-0.91-0.2-1.36c0.11,0.78,0.21,1.57,0.32,2.35c-0.58-4.49-0.56-9,0.04-13.48
						c-0.11,0.78-0.21,1.57-0.32,2.35c0.64-4.42,1.82-8.73,3.56-12.85c-0.3,0.71-0.6,1.41-0.89,2.12c1.67-3.9,3.81-7.57,6.38-10.94
						c-0.46,0.6-0.92,1.19-1.38,1.79c2.67-3.45,5.76-6.54,9.2-9.21c-0.6,0.46-1.19,0.92-1.79,1.38c3.44-2.63,7.18-4.81,11.15-6.51
						c-0.71,0.3-1.41,0.6-2.12,0.89c4.11-1.72,8.42-2.91,12.83-3.52c-0.78,0.11-1.57,0.21-2.35,0.32c4.4-0.58,8.85-0.59,13.25-0.03
						c-0.78-0.11-1.57-0.21-2.35-0.32c4.57,0.62,9.03,1.84,13.28,3.63c-0.71-0.3-1.41-0.6-2.12-0.89c3.89,1.67,7.54,3.81,10.91,6.37
						c-0.6-0.46-1.19-0.92-1.79-1.38c3.37,2.61,6.39,5.61,9.02,8.96c1.25,1.59,4.31,2.68,6.26,2.59c2.33-0.1,4.6-0.88,6.26-2.59
						c1.17-1.2,2.41-2.32,3.72-3.35c-0.6,0.46-1.19,0.92-1.79,1.38c2.44-1.88,5.09-3.44,7.91-4.66c-0.71,0.3-1.41,0.6-2.12,0.89
						c2.98-1.25,6.08-2.09,9.27-2.52c-0.78,0.11-1.57,0.21-2.35,0.32c3.01-0.37,6.03-0.37,9.04,0c-0.78-0.11-1.57-0.21-2.35-0.32
						c3.18,0.43,6.27,1.27,9.23,2.5c-0.71-0.3-1.41-0.6-2.12-0.89c2.75,1.18,5.32,2.67,7.7,4.48c-0.6-0.46-1.19-0.92-1.79-1.38
						c2.39,1.85,4.53,3.98,6.4,6.37c-0.46-0.6-0.92-1.19-1.38-1.79c1.9,2.47,3.46,5.15,4.68,8.02c-0.3-0.71-0.6-1.41-0.89-2.12
						c1.2,2.89,2.01,5.9,2.44,9c-0.11-0.78-0.21-1.57-0.32-2.35c0.39,3.06,0.39,6.13,0,9.19c0.11-0.78,0.21-1.57,0.32-2.35
						c-0.43,3.16-1.27,6.23-2.5,9.18c0.3-0.71,0.6-1.41,0.89-2.12c-1.18,2.75-2.67,5.32-4.48,7.7c0.46-0.6,0.92-1.19,1.38-1.79
						c-1.85,2.39-3.98,4.53-6.37,6.4c0.6-0.46,1.19-0.92,1.79-1.38c-2.47,1.9-5.15,3.46-8.02,4.68c0.71-0.3,1.41-0.6,2.12-0.89
						c-2.89,1.2-5.9,2.01-9,2.44c0.78-0.11,1.57-0.21,2.35-0.32c-3.06,0.39-6.13,0.39-9.19,0c0.78,0.11,1.57,0.21,2.35,0.32
						c-3.17-0.43-6.24-1.28-9.19-2.5c0.71,0.3,1.41,0.6,2.12,0.89c-2.21-0.95-4.31-2.1-6.3-3.46c-3.78-2.58-10.08-0.88-12.12,3.18
						c-1.45,2.9-3.17,5.64-5.14,8.22c0.46-0.6,0.92-1.19,1.38-1.79c-2.67,3.44-5.75,6.52-9.19,9.19c0.6-0.46,1.19-0.92,1.79-1.38
						c-3.43,2.62-7.16,4.8-11.13,6.49c0.71-0.3,1.41-0.6,2.12-0.89c-4.11,1.72-8.41,2.91-12.82,3.53c0.78-0.11,1.57-0.21,2.35-0.32
						c-4.52,0.6-9.07,0.6-13.59-0.01c0.78,0.11,1.57,0.21,2.35,0.32c-4.36-0.62-8.6-1.78-12.67-3.46c0.71,0.3,1.41,0.6,2.12,0.89
						c-0.54-0.23-1.08-0.47-1.62-0.71c-1.43-0.65-2.87-1.21-4.47-1.21c-1.97,0-3.82,0.71-5.37,1.9c-1.25,0.97-2.11,2.09-2.73,3.54
						c-0.83,1.97-0.78,3.65-0.45,5.77c0.07,0.45,0.14,0.91,0.2,1.36c-0.11-0.78-0.21-1.57-0.32-2.35c0.58,4.49,0.56,9-0.04,13.48
						c0.11-0.78,0.21-1.57,0.32-2.35c-0.64,4.42-1.82,8.73-3.56,12.85c0.3-0.71,0.6-1.41,0.89-2.12c-1.67,3.9-3.81,7.57-6.38,10.94
						c0.46-0.6,0.92-1.19,1.38-1.79c-2.67,3.45-5.76,6.54-9.2,9.21c0.6-0.46,1.19-0.92,1.79-1.38c-3.44,2.63-7.18,4.81-11.15,6.51
						c0.71-0.3,1.41-0.6,2.12-0.89c-4.11,1.72-8.42,2.91-12.83,3.52c0.78-0.11,1.57-0.21,2.35-0.32c-4.4,0.58-8.85,0.59-13.25,0.03
						c0.78,0.11,1.57,0.21,2.35,0.32c-4.56-0.61-9-1.83-13.23-3.61c0.71,0.3,1.41,0.6,2.12,0.89c-3.9-1.67-7.57-3.81-10.94-6.38
						c0.6,0.46,1.19,0.92,1.79,1.38c-3.45-2.67-6.54-5.76-9.21-9.2c0.46,0.6,0.92,1.19,1.38,1.79c-2.63-3.44-4.81-7.18-6.51-11.15
						c0.3,0.71,0.6,1.41,0.89,2.12c-1.72-4.11-2.91-8.42-3.52-12.83c0.11,0.78,0.21,1.57,0.32,2.35c-0.58-4.4-0.59-8.85-0.03-13.25
						c-0.11,0.78-0.21,1.57-0.32,2.35c0.61-4.56,1.83-9,3.61-13.23c-0.3,0.71-0.6,1.41-0.89,2.12c1.67-3.9,3.81-7.57,6.38-10.94
						c-0.46,0.6-0.92,1.19-1.38,1.79c2.67-3.45,5.76-6.54,9.2-9.21c-0.6,0.46-1.19,0.92-1.79,1.38c3.44-2.63,7.18-4.81,11.15-6.51
						c-0.71,0.3-1.41,0.6-2.12,0.89c4.11-1.72,8.42-2.91,12.83-3.52c-0.78,0.11-1.57,0.21-2.35,0.32c4.4-0.58,8.85-0.59,13.25-0.03
						c-0.78-0.11-1.57-0.21-2.35-0.32C613.65,326.07,616.29,326.64,618.88,327.4c4.44,1.31,9.85-1.58,10.89-6.19
						c1.08-4.75-1.43-9.49-6.19-10.89c-9.59-2.83-19.74-3.1-29.51-1.03c-9.47,2.01-18.13,6.59-25.57,12.71
						c-14.64,12.06-22.8,32.17-20.56,51.03c1.15,9.63,4.17,18.95,9.69,27.01c5.45,7.96,12.65,14.75,21.22,19.26
						c8.88,4.67,18.94,7.22,29,7.02c9.71-0.2,19.3-2.8,27.8-7.5c18.54-10.25,30.34-30.46,30.38-51.62
						c0.01-3.49-0.41-6.96-0.95-10.41c-4.34,3.33-8.67,6.67-13.01,10c3.44,1.56,6.95,2.97,10.61,3.92c3.15,0.81,6.37,1.29,9.59,1.64
						c5.76,0.63,11.6,0.16,17.28-0.95c11.01-2.14,21.42-7.83,29.45-15.62c4.57-4.43,8.48-9.72,11.34-15.41
						c-4.04,1.06-8.08,2.12-12.12,3.18c10.88,7.43,25.49,9.53,38.01,5.36c11.5-3.83,21.59-12.26,26.51-23.46
						c2.68-6.11,4.28-12.56,4.14-19.28c-0.13-6.52-1.75-12.68-4.48-18.57c-5.16-11.13-15.53-19.54-27.2-23.03
						c-15.53-4.64-32.86,0.05-44.13,11.62c4.17,0,8.35,0,12.52,0c-12.64-16.11-33.77-24.08-53.9-21.37
						c-18.34,2.46-35.06,13.71-43.93,30.03c-2.72,5-4.83,10.47-5.99,16.04c-1.59,7.67-1.62,15.14-0.41,22.85
						c4.34-3.33,8.67-6.67,13.01-10c-2.87-1.31-5.79-2.5-8.81-3.42c-4.43-1.35-9.85,1.61-10.89,6.19
						C611.61,321.29,614.13,325.96,618.88,327.4z" class="st52"></path>
				</g>
			</g>
			<g>
				<circle r="10.19" cy="313.53" cx="693.77" class="st14"></circle>
				<g>
					<path d="M678.89,309.2c-1.85,6.49,0.72,13.12,6.08,17.06c4.88,3.59,12.2,3.68,17.21,0.29
						c5.52-3.74,8.3-10.48,6.58-17.01c-0.74-2.8-2.38-5.61-4.59-7.5c-2.71-2.32-5.79-3.61-9.34-3.96
						C687.6,297.37,681,302.47,678.89,309.2c-0.83,2.65,0.98,5.91,3.71,6.54c2.89,0.66,5.65-0.87,6.54-3.71
						c0.08-0.25,0.21-0.52,0.27-0.78c-0.24,1.18-0.4,0.9-0.15,0.41c0.22-0.44,0.48-0.84,0.74-1.25c0.23-0.37,0.55-0.4-0.36,0.45
						c0.19-0.17,0.34-0.4,0.51-0.58c0.12-0.12,0.24-0.25,0.37-0.37c0.12-0.12,0.25-0.23,0.38-0.35c0.42-0.34,0.26-0.23-0.47,0.35
						c0.37-0.2,0.71-0.48,1.08-0.69c0.18-0.1,0.39-0.18,0.57-0.29c0.56-0.35-1.35,0.49-0.44,0.18c0.41-0.14,0.81-0.27,1.23-0.37
						c0.25-0.06,0.51-0.08,0.76-0.15c-1.45,0.38-0.91,0.11-0.38,0.08c0.44-0.02,0.88,0,1.32,0.02c1.03,0.03-1.36-0.28-0.35-0.05
						c0.22,0.05,0.44,0.09,0.66,0.15c0.26,0.07,1.73,0.61,0.79,0.21c-0.9-0.38-0.06-0.01,0.1,0.07c0.28,0.14,0.54,0.3,0.8,0.46
						c0.18,0.12,0.35,0.27,0.54,0.37c-1.21-0.65-0.66-0.53-0.27-0.17c0.32,0.29,0.6,0.61,0.9,0.93c0.57,0.61-0.36-0.48-0.35-0.47
						c0.16,0.11,0.33,0.47,0.43,0.64c0.11,0.18,0.22,0.37,0.32,0.55c0.24,0.45,0.41,1.3-0.04-0.23c0.12,0.41,0.29,0.8,0.4,1.22
						c0.07,0.25,0.11,0.5,0.17,0.76c0.1,0.44-0.11,0.7-0.08-0.64c-0.01,0.43,0.06,0.87,0.05,1.31c-0.01,0.26-0.06,0.53-0.05,0.79
						c-0.04-1.52,0.13-0.86,0.02-0.35c-0.11,0.5-0.27,0.97-0.42,1.45c-0.21,0.65,0.63-1.27,0.17-0.4c-0.13,0.24-0.24,0.47-0.38,0.71
						c-0.09,0.15-0.18,0.3-0.28,0.45c-0.3,0.46-0.79,0.69,0.21-0.23c-0.38,0.35-0.68,0.78-1.07,1.12c-0.12,0.11-0.28,0.22-0.39,0.34
						c0.95-1.01,0.69-0.52,0.25-0.22c-0.36,0.24-0.74,0.43-1.11,0.64c-0.87,0.48,1.28-0.44,0.33-0.13
						c-0.16,0.05-0.32,0.12-0.49,0.17c-0.5,0.16-1.01,0.22-1.51,0.35c1.49-0.4,0.91-0.11,0.38-0.08c-0.17,0.01-0.35,0.01-0.52,0.01
						c-0.27,0-0.53-0.02-0.79-0.03c-1-0.03,1.17,0.22,0.48,0.07c-0.45-0.09-0.89-0.18-1.33-0.32c-0.21-0.07-0.43-0.18-0.65-0.23
						c0.85,0.37,1.02,0.44,0.53,0.21c-0.12-0.06-0.24-0.12-0.36-0.18c-0.2-0.1-0.39-0.21-0.58-0.33c-0.17-0.11-1.13-0.81-0.32-0.18
						c0.77,0.59,0.07,0.04-0.06-0.08c-0.22-0.2-0.44-0.42-0.64-0.64c-0.14-0.16-0.27-0.34-0.42-0.49c1.08,1.02,0.45,0.6,0.15,0.14
						c-0.12-0.18-0.23-0.36-0.33-0.55c-0.1-0.19-0.58-1.25-0.18-0.29c0.38,0.92,0.05,0.1-0.01-0.08c-0.1-0.28-0.18-0.57-0.26-0.86
						c-0.05-0.21-0.09-0.42-0.14-0.63c-0.22-0.96,0.13,1.47,0.05,0.25c-0.03-0.53-0.01-1.05,0.02-1.58c0.04-0.7-0.29,1.46-0.06,0.48
						c0.08-0.36,0.16-0.71,0.26-1.06c0.76-2.67-0.93-5.9-3.71-6.54C682.6,304.85,679.7,306.34,678.89,309.2z" class="st53"></path>
				</g>
			</g>
			<g>
				<circle r="8.82" cy="321.82" cx="655.11" class="st14"></circle>
				<g>
					<path d="M641.54,317.89c-0.74,2.62-0.78,5.62,0.11,8.22c1.05,3.06,2.88,5.45,5.48,7.35
						c4.42,3.24,11.09,3.32,15.61,0.25c5.05-3.42,7.59-9.55,6.02-15.53c-0.67-2.53-2.16-5.09-4.16-6.81
						c-2.5-2.14-5.31-3.31-8.59-3.63c-2.85-0.28-6.06,0.56-8.45,2.14C644.65,311.8,642.58,314.54,641.54,317.89
						c-0.83,2.65,0.98,5.91,3.71,6.54c2.89,0.66,5.65-0.87,6.54-3.71c0.09-0.3,0.2-0.6,0.32-0.89c-0.18,0.42-0.36,0.85-0.54,1.27
						c0.31-0.71,0.69-1.36,1.15-1.98c-0.28,0.36-0.55,0.72-0.83,1.08c0.47-0.59,0.99-1.11,1.58-1.58c-0.36,0.28-0.72,0.55-1.08,0.83
						c0.6-0.45,1.23-0.82,1.91-1.13c-0.42,0.18-0.85,0.36-1.27,0.54c0.76-0.32,1.54-0.53,2.36-0.65c-0.47,0.06-0.94,0.13-1.41,0.19
						c0.76-0.09,1.51-0.09,2.27,0c-0.47-0.06-0.94-0.13-1.41-0.19c0.78,0.11,1.54,0.32,2.27,0.61c-0.42-0.18-0.85-0.36-1.27-0.54
						c0.71,0.31,1.36,0.69,1.98,1.15c-0.36-0.28-0.72-0.55-1.08-0.83c0.59,0.47,1.11,0.99,1.58,1.58c-0.28-0.36-0.55-0.72-0.83-1.08
						c0.45,0.6,0.82,1.23,1.13,1.91c-0.18-0.42-0.36-0.85-0.54-1.27c0.32,0.76,0.53,1.54,0.65,2.36c-0.06-0.47-0.13-0.94-0.19-1.41
						c0.09,0.76,0.09,1.51,0,2.27c0.06-0.47,0.13-0.94,0.19-1.41c-0.11,0.78-0.32,1.54-0.61,2.27c0.18-0.42,0.36-0.85,0.54-1.27
						c-0.31,0.71-0.69,1.36-1.15,1.98c0.28-0.36,0.55-0.72,0.83-1.08c-0.47,0.59-0.99,1.11-1.58,1.58c0.36-0.28,0.72-0.55,1.08-0.83
						c-0.6,0.45-1.23,0.82-1.91,1.13c0.42-0.18,0.85-0.36,1.27-0.54c-0.76,0.32-1.54,0.53-2.36,0.65c0.47-0.06,0.94-0.13,1.41-0.19
						c-0.76,0.09-1.51,0.09-2.27,0c0.47,0.06,0.94,0.13,1.41,0.19c-0.78-0.11-1.54-0.32-2.27-0.61c0.42,0.18,0.85,0.36,1.27,0.54
						c-0.71-0.31-1.36-0.69-1.98-1.15c0.36,0.28,0.72,0.55,1.08,0.83c-0.59-0.47-1.11-0.99-1.58-1.58c0.28,0.36,0.55,0.72,0.83,1.08
						c-0.45-0.6-0.82-1.23-1.13-1.91c0.18,0.42,0.36,0.85,0.54,1.27c-0.32-0.76-0.53-1.54-0.65-2.36c0.06,0.47,0.13,0.94,0.19,1.41
						c-0.09-0.76-0.09-1.51,0-2.27c-0.06,0.47-0.13,0.94-0.19,1.41c0.07-0.47,0.17-0.92,0.3-1.38c0.76-2.67-0.93-5.9-3.71-6.54
						C645.25,313.53,642.35,315.02,641.54,317.89z" class="st53"></path>
				</g>
			</g>
			<g>
				<circle r="7.25" cy="342.54" cx="623.16" class="st14"></circle>
				<g>
					<path d="M611.09,339.06c-0.66,2.31-0.7,4.98,0.09,7.26c0.95,2.76,2.59,4.89,4.94,6.61
						c3.88,2.85,9.82,2.9,13.79,0.21c0.97-0.66,1.94-1.4,2.69-2.32c1.09-1.35,1.77-2.52,2.41-4.13c0.9-2.29,0.91-5.02,0.29-7.38
						c-0.58-2.23-1.9-4.51-3.66-6.01c-0.92-0.79-1.88-1.52-2.99-2.01c-1.62-0.71-2.97-1.08-4.74-1.25
						c-2.49-0.24-5.34,0.51-7.43,1.89C613.87,333.63,612.03,336.06,611.09,339.06c-0.83,2.65,0.98,5.91,3.71,6.54
						c2.89,0.66,5.65-0.87,6.54-3.71c0.08-0.25,0.16-0.49,0.26-0.73c-0.18,0.42-0.36,0.85-0.54,1.27c0.25-0.58,0.57-1.12,0.95-1.63
						c-0.28,0.36-0.55,0.72-0.83,1.08c0.38-0.48,0.81-0.91,1.3-1.3c-0.36,0.28-0.72,0.55-1.08,0.83c0.49-0.37,1.01-0.67,1.57-0.93
						c-0.42,0.18-0.85,0.36-1.27,0.54c0.63-0.26,1.27-0.44,1.94-0.53c-0.47,0.06-0.94,0.13-1.41,0.19c0.63-0.07,1.24-0.07,1.87,0
						c-0.47-0.06-0.94-0.13-1.41-0.19c0.65,0.09,1.26,0.26,1.87,0.5c-0.42-0.18-0.85-0.36-1.27-0.54c0.58,0.25,1.12,0.57,1.63,0.95
						c-0.36-0.28-0.72-0.55-1.08-0.83c0.48,0.38,0.91,0.81,1.3,1.3c-0.28-0.36-0.55-0.72-0.83-1.08c0.37,0.49,0.67,1.01,0.93,1.57
						c-0.18-0.42-0.36-0.85-0.54-1.27c0.26,0.63,0.44,1.27,0.53,1.94c-0.06-0.47-0.13-0.94-0.19-1.41c0.07,0.63,0.07,1.24,0,1.87
						c0.06-0.47,0.13-0.94,0.19-1.41c-0.09,0.65-0.26,1.26-0.5,1.87c0.18-0.42,0.36-0.85,0.54-1.27c-0.25,0.58-0.57,1.12-0.95,1.63
						c0.28-0.36,0.55-0.72,0.83-1.08c-0.38,0.48-0.81,0.91-1.3,1.3c0.36-0.28,0.72-0.55,1.08-0.83c-0.49,0.37-1.01,0.67-1.57,0.93
						c0.42-0.18,0.85-0.36,1.27-0.54c-0.63,0.26-1.27,0.44-1.94,0.53c0.47-0.06,0.94-0.13,1.41-0.19c-0.63,0.07-1.24,0.07-1.87,0
						c0.47,0.06,0.94,0.13,1.41,0.19c-0.65-0.09-1.26-0.26-1.87-0.5c0.42,0.18,0.85,0.36,1.27,0.54c-0.58-0.25-1.12-0.57-1.63-0.95
						c0.36,0.28,0.72,0.55,1.08,0.83c-0.48-0.38-0.91-0.81-1.3-1.3c0.28,0.36,0.55,0.72,0.83,1.08c-0.37-0.49-0.67-1.01-0.93-1.57
						c0.18,0.42,0.36,0.85,0.54,1.27c-0.26-0.63-0.44-1.27-0.53-1.94c0.06,0.47,0.13,0.94,0.19,1.41c-0.07-0.63-0.07-1.24,0-1.87
						c-0.06,0.47-0.13,0.94-0.19,1.41c0.06-0.39,0.14-0.76,0.24-1.13c0.76-2.67-0.93-5.9-3.71-6.54
						C614.8,334.7,611.9,336.19,611.09,339.06z" class="st53"></path>
				</g>
			</g>
			<g>
				<path d="M652.57,461.12c-93.36-20.89-99.05-80.61-90.13-98.06c0,0,22.32-39.14,61.4,17.72
					c0.28-1.92,0.7-3.84,1.27-5.76c6.41-21.46,29-33.67,50.46-27.26c11.25,3.36,19.96,11.17,24.77,20.93
					c0.1-4.22,0.75-8.49,2.02-12.73c7.65-25.61,34.6-40.17,60.21-32.52c22.2,6.63,36.09,27.77,34.42,49.96l0,0c0,0,0,0.01,0,0.02
					C797,373.43,800.15,494.14,652.57,461.12z" class="st30"></path>
				<g>
					<path d="M654.93,452.58c-11.35-2.55-22.54-5.9-33.27-10.41c0.71,0.3,1.41,0.6,2.12,0.89
						c-10.19-4.31-19.96-9.67-28.74-16.43c0.6,0.46,1.19,0.92,1.79,1.38c-6.12-4.74-11.71-10.15-16.45-16.27
						c0.46,0.6,0.92,1.19,1.38,1.79c-3.91-5.07-7.22-10.58-9.71-16.48c0.3,0.71,0.6,1.41,0.89,2.12
						c-2.17-5.17-3.72-10.59-4.48-16.15c0.11,0.78,0.21,1.57,0.32,2.35c-0.58-4.38-0.69-8.85-0.1-13.24
						c-0.11,0.78-0.21,1.57-0.32,2.35c0.36-2.65,0.97-5.28,2-7.75c-0.3,0.71-0.6,1.41-0.89,2.12c0.59-1.39,1.38-2.57,2.3-3.77
						c-0.46,0.6-0.92,1.19-1.38,1.79c1.64-2.12,3.54-4.04,5.66-5.68c-0.6,0.46-1.19,0.92-1.79,1.38c1.71-1.31,3.56-2.42,5.54-3.27
						c-0.71,0.3-1.41,0.6-2.12,0.89c1.82-0.77,3.73-1.29,5.68-1.56c-0.78,0.11-1.57,0.21-2.35,0.32c1.97-0.25,3.95-0.23,5.91,0.03
						c-0.78-0.11-1.57-0.21-2.35-0.32c2.37,0.33,4.67,1.01,6.89,1.92c-0.71-0.3-1.41-0.6-2.12-0.89c3.43,1.45,6.59,3.44,9.54,5.71
						c-0.6-0.46-1.19-0.92-1.79-1.38c5.91,4.6,10.93,10.22,15.5,16.12c-0.46-0.6-0.92-1.19-1.38-1.79c1.73,2.25,3.39,4.55,5,6.88
						c2.06,2.99,5.11,4.73,8.82,4.23c1.59-0.21,2.92-0.76,4.19-1.74c1.38-1.07,2.9-2.8,3.17-4.6c0.53-3.48,1.48-6.85,2.84-10.1
						c-0.3,0.71-0.6,1.41-0.89,2.12c1.37-3.17,3.11-6.14,5.21-8.88c-0.46,0.6-0.92,1.19-1.38,1.79c2.14-2.74,4.61-5.2,7.36-7.33
						c-0.6,0.46-1.19,0.92-1.79,1.38c2.75-2.09,5.73-3.83,8.9-5.19c-0.71,0.3-1.41,0.6-2.12,0.89c3.3-1.39,6.75-2.34,10.3-2.84
						c-0.78,0.11-1.57,0.21-2.35,0.32c3.63-0.49,7.28-0.49,10.91-0.01c-0.78-0.11-1.57-0.21-2.35-0.32
						c3.64,0.51,7.18,1.49,10.58,2.92c-0.71-0.3-1.41-0.6-2.12-0.89c3.11,1.34,6.03,3.05,8.72,5.1c-0.6-0.46-1.19-0.92-1.79-1.38
						c2.81,2.17,5.31,4.68,7.48,7.49c-0.46-0.6-0.92-1.19-1.38-1.79c1.61,2.12,3.02,4.38,4.21,6.77c1.67,3.35,6.48,5.21,10,4.07
						c3.8-1.23,6.39-4.5,6.5-8.54c0.05-1.73,0.18-3.46,0.4-5.18c-0.11,0.78-0.21,1.57-0.32,2.35c0.59-4.32,1.73-8.52,3.41-12.54
						c-0.3,0.71-0.6,1.41-0.89,2.12c1.62-3.8,3.69-7.37,6.19-10.65c-0.46,0.6-0.92,1.19-1.38,1.79c2.53-3.27,5.46-6.2,8.72-8.75
						c-0.6,0.46-1.19,0.92-1.79,1.38c3.34-2.57,6.98-4.7,10.86-6.35c-0.71,0.3-1.41,0.6-2.12,0.89c4.01-1.68,8.21-2.82,12.52-3.41
						c-0.78,0.11-1.57,0.21-2.35,0.32c4.18-0.54,8.39-0.53,12.57,0c-0.78-0.11-1.57-0.21-2.35-0.32c4.37,0.59,8.63,1.76,12.69,3.47
						c-0.71-0.3-1.41-0.6-2.12-0.89c3.79,1.62,7.34,3.7,10.62,6.21c-0.6-0.46-1.19-0.92-1.79-1.38c3.26,2.54,6.18,5.47,8.72,8.74
						c-0.46-0.6-0.92-1.19-1.38-1.79c2.56,3.35,4.68,6.99,6.33,10.88c-0.3-0.71-0.6-1.41-0.89-2.12c1.63,3.91,2.74,8,3.33,12.2
						c-0.11-0.78-0.21-1.57-0.32-2.35c0.51,3.83,0.36,7.64,0.3,11.48c-0.03,2.03-0.15,4.06-0.33,6.09
						c-0.15,1.72-0.34,3.44-0.57,5.15c0.11-0.78,0.21-1.57,0.32-2.35c-0.97,7.18-2.6,14.28-4.93,21.14
						c-0.78,2.3-1.65,4.58-2.59,6.82c0.3-0.71,0.6-1.41,0.89-2.12c-2.29,5.42-5.07,10.64-8.36,15.52c-1,1.48-2.04,2.92-3.13,4.33
						c0.46-0.6,0.92-1.19,1.38-1.79c-4.1,5.29-8.83,10.05-14.11,14.15c0.6-0.46,1.19-0.92,1.79-1.38
						c-5.63,4.35-11.83,7.9-18.38,10.67c0.71-0.3,1.41-0.6,2.12-0.89c-8.41,3.53-17.3,5.75-26.32,6.97
						c0.78-0.11,1.57-0.21,2.35-0.32c-10.97,1.47-22.09,1.49-33.1,0.59c-3.66-0.3-7.31-0.7-10.95-1.19
						c0.78,0.11,1.57,0.21,2.35,0.32C669.31,455.51,662.09,454.18,654.93,452.58c-2.31-0.52-4.74-0.32-6.82,0.89
						c-1.84,1.08-3.59,3.18-4.07,5.29c-1.02,4.49,1.35,9.82,6.19,10.89c17.88,3.99,36.35,6.58,54.71,5.94
						c13.6-0.47,27.43-2.61,40.13-7.62c10.9-4.3,20.87-10.22,29.49-18.22c6.94-6.44,12.84-14.18,17.41-22.47
						c4.04-7.33,7.21-15.24,9.47-23.3c1.84-6.54,3-13.22,3.78-19.97c0.38-3.25,0.63-6.52,0.65-9.79c0.01-2.9,0.2-5.78-0.06-8.69
						c-0.91-10.24-4.22-20.32-10.3-28.69c-3.01-4.15-6.36-8-10.38-11.19c-2.28-1.81-4.6-3.56-7.1-5.05
						c-2.55-1.52-5.23-2.72-7.97-3.86c-4.96-2.07-10.06-3.18-15.39-3.83c-5.13-0.62-10.15-0.29-15.25,0.45
						c-10.04,1.47-19.26,6.08-27.14,12.35c-7.97,6.35-13.73,15.05-17.32,24.52c-2.22,5.86-3.29,12.2-3.47,18.44
						c5.5-1.49,11-2.98,16.5-4.47c-3.77-7.55-9.6-13.86-16.51-18.63c-7-4.83-15.26-7.39-23.67-8.2
						c-14.87-1.43-30.56,4.92-40.46,16.07c-6.22,7-10.64,15.67-12.05,24.97c5.4-0.71,10.79-1.41,16.19-2.12
						c-7.89-11.44-17.23-23.23-29.59-30.12c-7.9-4.41-17.11-6.45-26-4.07c-6.03,1.61-11.58,5.2-15.86,9.69
						c-1.59,1.67-3.03,3.52-4.36,5.41c-0.4,0.57-0.79,1.14-1.09,1.77c-2.43,5.02-3.51,10.28-3.91,15.83
						c-0.43,6.06,0.3,12.29,1.65,18.2c1.61,7.08,4.45,13.99,8.02,20.3c4.28,7.57,9.86,14.52,16.14,20.52
						c7.66,7.32,16.48,13.51,25.8,18.54c11.78,6.35,24.47,11.12,37.37,14.66c3.5,0.96,7.02,1.83,10.55,2.62
						c2.31,0.52,4.75,0.32,6.82-0.89c1.84-1.08,3.59-3.18,4.07-5.29C662.14,458.98,659.76,453.67,654.93,452.58z" class="st54"></path>
				</g>
			</g>
		</g>
		<g>
			<g>
				<path d="M675.05,730.95c0,0-52.55-321.16-176.5-277.2S675.05,730.95,675.05,730.95z" class="st32"></path>
				<g>
					<path d="M683.59,728.59c-0.52-3.2-1.12-6.39-1.71-9.58c-1.6-8.53-3.34-17.03-5.19-25.51
						c-2.69-12.37-5.62-24.69-8.78-36.94c-3.8-14.72-7.94-29.36-12.5-43.86c-4.91-15.61-10.29-31.07-16.35-46.28
						c-6.25-15.7-13.11-31.18-21.09-46.08c-7.4-13.81-15.81-27.03-25.63-39.25c-8.65-10.76-18.7-20.56-30.37-28
						c-11.13-7.09-23.82-11.49-37.02-12.24c-13.53-0.76-27.45,2.73-39.44,8.93c-4.93,2.55-9.64,5.87-13.52,9.85
						c-4.07,4.18-7,8.93-9.2,14.29c-3.98,9.71-3.57,20.69-1.45,30.78c2.47,11.78,7.67,23.04,13.47,33.52
						c6.77,12.22,14.81,23.71,23.32,34.77c10.06,13.06,20.75,25.59,31.9,37.72c11.04,12.01,22.49,23.65,34.18,35.03
						c11.22,10.92,22.68,21.6,34.32,32.08c10.18,9.17,20.5,18.19,30.93,27.08c7.93,6.75,15.94,13.43,24.01,20.01
						c4.5,3.67,9.02,7.31,13.57,10.9c0.59,0.46,1.18,0.93,1.77,1.39c1.94,1.51,3.69,2.59,6.26,2.59c2.17,0,4.77-0.96,6.26-2.59
						c1.55-1.69,2.7-3.9,2.59-6.26c-0.1-2.17-0.79-4.86-2.59-6.26c-1-0.78-2-1.56-2.99-2.35c-2.8-2.22-5.59-4.45-8.37-6.7
						c-4.29-3.47-8.56-6.96-12.8-10.48c-5.52-4.57-11-9.18-16.45-13.83c-6.43-5.49-12.82-11.03-19.15-16.62
						c-7.02-6.2-13.98-12.47-20.88-18.81c-7.38-6.79-14.68-13.66-21.88-20.64c-7.41-7.18-14.73-14.46-21.91-21.87
						c-7.13-7.36-14.14-14.84-20.96-22.48c-6.63-7.42-13.09-14.99-19.3-22.77c-1.45-1.82-2.89-3.65-4.32-5.5
						c0.46,0.6,0.92,1.19,1.38,1.79c-5.02-6.51-9.86-13.16-14.4-20.02c-4.1-6.21-7.97-12.59-11.4-19.19
						c-1.77-3.41-3.43-6.87-4.92-10.41c0.3,0.71,0.6,1.41,0.89,2.12c-2.31-5.49-4.26-11.15-5.48-16.99
						c-0.32-1.52-0.58-3.05-0.79-4.58c0.11,0.78,0.21,1.57,0.32,2.35c-0.55-4.16-0.67-8.37-0.11-12.53
						c-0.11,0.78-0.21,1.57-0.32,2.35c0.42-3.09,1.21-6.12,2.42-9c-0.3,0.71-0.6,1.41-0.89,2.12c1.1-2.59,2.54-5.03,4.26-7.26
						c-0.46,0.6-0.92,1.19-1.38,1.79c1.94-2.5,4.22-4.71,6.71-6.65c-0.6,0.46-1.19,0.92-1.79,1.38c3.68-2.84,7.79-5.08,12.06-6.9
						c-0.71,0.3-1.41,0.6-2.12,0.89c5.94-2.51,12.2-4.29,18.6-5.17c-0.78,0.11-1.57,0.21-2.35,0.32c5.53-0.74,11.12-0.77,16.65-0.04
						c-0.78-0.11-1.57-0.21-2.35-0.32c5.63,0.77,11.12,2.31,16.35,4.51c-0.71-0.3-1.41-0.6-2.12-0.89
						c6.55,2.77,12.64,6.5,18.27,10.84c-0.6-0.46-1.19-0.92-1.79-1.38c6.98,5.4,13.25,11.68,18.96,18.4
						c1.73,2.04,3.4,4.11,5.04,6.23c-0.46-0.6-0.92-1.19-1.38-1.79c6,7.78,11.39,16.01,16.35,24.48
						c5.27,9.01,10.06,18.29,14.49,27.73c2.59,5.5,5.05,11.07,7.41,16.67c-0.3-0.71-0.6-1.41-0.89-2.12
						c6.52,15.46,12.28,31.23,17.5,47.17c4.92,15.01,9.37,30.18,13.44,45.45c3.46,12.96,6.64,26,9.56,39.09
						c2.08,9.31,4.03,18.65,5.82,28.02c0.76,4,1.36,8.05,2.18,12.04c0.01,0.05,0.02,0.11,0.03,0.16c0.34,2.06,2.35,4.28,4.07,5.29
						c1.9,1.11,4.7,1.58,6.82,0.89c2.14-0.69,4.21-2.02,5.29-4.07C683.88,733.19,684,731.07,683.59,728.59z" class="st44"></path>
				</g>
			</g>
			<g>
				<path d="M498,455.63c0,0,108.02,87.46,177.06,275.32" class="st32"></path>
				<g>
					<path d="M493.61,460.01c1,0.81,1.97,1.65,2.94,2.5c2.81,2.45,5.56,4.98,8.27,7.55c4.38,4.15,8.65,8.4,12.85,12.73
						c5.64,5.83,11.14,11.8,16.5,17.88c6.66,7.55,13.11,15.27,19.39,23.14c1.73,2.17,3.45,4.36,5.16,6.56
						c0.21,0.28,0.43,0.55,0.64,0.83c0.45,0.59-0.87-1.13-0.42-0.54c0.09,0.12,0.18,0.24,0.28,0.36c0.46,0.6,0.92,1.2,1.38,1.8
						c0.9,1.18,1.8,2.37,2.7,3.55c3.72,4.93,7.36,9.91,10.94,14.93c7.9,11.09,15.47,22.41,22.72,33.93
						c8.15,12.96,15.9,26.16,23.25,39.59c8.07,14.74,15.66,29.75,22.77,44.98c3.8,8.14,7.46,16.34,10.99,24.6
						c0.41,0.96,0.82,1.91,1.22,2.87c-0.57-1.39,0.08,0.2,0.22,0.52c0.28,0.67,0.56,1.34,0.84,2.01c0.87,2.09,1.74,4.19,2.59,6.3
						c1.8,4.42,3.56,8.86,5.28,13.31c1.7,4.38,3.35,8.78,4.97,13.19c1.12,3.04,4.25,5.42,7.63,4.33c2.98-0.96,5.53-4.37,4.33-7.63
						c-6.62-18-13.85-35.79-21.67-53.3c-7.04-15.78-14.59-31.33-22.64-46.61c-7.32-13.9-15.07-27.57-23.23-40.99
						c-7.32-12.03-14.99-23.86-23-35.45c-7.29-10.54-14.88-20.86-22.73-30.99c-6.49-8.37-13.18-16.59-20.09-24.62
						c-5.65-6.56-11.44-13.01-17.39-19.29c-4.52-4.78-9.13-9.47-13.86-14.04c-3.11-3.01-6.28-5.98-9.51-8.86
						c-1.43-1.27-2.86-2.54-4.34-3.75c-0.06-0.05-0.12-0.1-0.18-0.15c-1.32-1.07-2.62-1.82-4.38-1.82c-1.52,0-3.34,0.68-4.38,1.82
						C491.54,453.51,490.92,457.83,493.61,460.01L493.61,460.01z" class="st44"></path>
				</g>
			</g>
		</g>
	</g>
	<path d="M374.54,883.77c-39.15-42.41-63.65-92.35-79.08-145.61c32.47-4.96,65.02-15.12,87.1-40.95
		c14.31-16.74,30.77-51.06,11.53-70.46c-16.79-16.93-47.2-10.05-64.85,1.08c-24.99,15.75-36.58,41.96-43.83,69.38
		c-7.03-34.44-11.01-69.77-13.26-104.98c34.38-5.83,68.64-18.11,89.62-47.73c12.4-17.51,24.29-48.23,7.95-67.03
		c-17.81-20.49-49.22-11.16-66.55,4.32c-15.36,13.72-25.95,32.95-33.38,53.31c-0.69-33.5-0.22-67.03,1.47-100.5
		c32.94-6.23,139.66-53.95,93.16-101.06c-35.19-35.64-68.4,6.93-89.37,47.03c0.53-5.93,1.05-11.85,1.65-17.77
		c2.88-28.12,7.48-55.9,12.43-83.6c1.12-0.02,2.28-0.22,3.47-0.94c36.17-21.73,56.81-59.9,60.64-101.59
		c2.83-30.76-8.02-72.77-45.97-73.1c-36.09-0.32-56.64,41.15-61.95,71.62c-6.19,35.51,2.37,74.75,27.36,101.15
		c-5.64,34.88-9.24,70.16-12.39,104.27c-13.4-48.88-43.38-108.24-84.77-75.01c-23.48,18.85-14.5,52.22-0.95,73.91
		c18.67,29.89,47.64,49.3,81.66,55.27c-2.08,37.23-2.63,74.54-1.68,111.82c-26.7-47.28-78.1-103.61-117.6-54.34
		c-17.65,22.01-12.22,52.64,5.53,72.79c27.86,31.62,75.52,31.58,113.9,26.16c1.9,32.31,5.24,65.35,11.06,97.93
		c-14.33-17.76-31.66-33.49-51.59-41.14c-20.84-8-48.2-4.65-57.88,18.28c-9.7,22.99,4.58,46.23,23.49,58.84
		c28.16,18.77,64.83,21.31,96.51,11.43c15.9,58.93,42.38,114.15,86.84,157.79C371.48,900.91,380.74,890.48,374.54,883.77z" class="st55"></path>
</g>
</svg>
