<svg xmlns="http://www.w3.org/2000/svg" viewBox="0 0 120.47 89.42"><defs><style>.cls-1{fill:#ffe6c3;}.cls-2{fill:#ffc3c3;}.cls-3{fill:#ff8652;}.cls-4{fill:#099799;}.cls-5{fill:#754180;}</style></defs><g id="图层_2" data-name="图层 2"><g id="图层_7" data-name="图层 7"><path class="cls-1" d="M94.41,38.37c-9.44,0-17.69,6.46-22.26,16.09a16,16,0,0,0-9.43-3.17A16.87,16.87,0,0,0,50.42,57c-3.8-4.29-8.78-6.91-14.25-6.91-11.94,0-21.62,12.39-21.62,27.66a34.05,34.05,0,0,0,2.05,11.7h99.86a40.26,40.26,0,0,0,4-17.71C120.47,53.29,108.8,38.37,94.41,38.37Z"/><path class="cls-2" d="M72.47,45.24c-8.18,0-15.32,5.59-19.27,13.93A13.8,13.8,0,0,0,45,56.42,14.59,14.59,0,0,0,34.4,61.34a16.56,16.56,0,0,0-12.34-6C11.73,55.36,3.35,66.08,3.35,79.3A29.38,29.38,0,0,0,5.13,89.42H91.55A34.71,34.71,0,0,0,95,74.09C95,58.15,84.92,45.24,72.47,45.24Z"/><circle class="cls-3" cx="18.26" cy="76.56" r="3.71"/><circle class="cls-3" cx="45.53" cy="67.33" r="3.71"/><circle class="cls-3" cx="80.04" cy="63.21" r="3.71"/><circle class="cls-3" cx="62.64" cy="80.28" r="3.71"/><path class="cls-4" d="M50.61,74.62c.53-6.51-3.35-12.75-8.49-16.77S30.67,51.63,24.5,49.5L5.67,43c-2-.7-4.23-1.55-5.2-3.45a5.41,5.41,0,0,1,1.28-6.07A10.7,10.7,0,0,1,7.69,30.8c7.23-1.21,14.68,1.35,20.76,5.45s11,9.65,15.85,15.14C50.41,58.29,51.09,65.41,50.61,74.62Z"/><path class="cls-4" d="M47.84,70.32c1-9.72-2.22-18.7-6.85-24.27S30.48,37.7,24.72,35L7.13,26.79c-1.88-.88-3.94-2-4.73-4.72A12.07,12.07,0,0,1,4.11,13,11,11,0,0,1,10,8.5c7-2.36,14,.86,19.52,6.49S39.36,28.48,43.6,36.27C48.93,46.06,49,56.59,47.84,70.32Z"/><path class="cls-4" d="M50.86,72.71c-3.14-5.72-2.15-13,.9-18.77s7.91-10.36,12.67-14.83L79,25.47c1.56-1.46,3.22-3.14,3.34-5.28a5.44,5.44,0,0,0-3.65-5,10.75,10.75,0,0,0-6.52,0C65,17,59.27,22.41,55.41,28.63s-6.1,13.31-8.28,20.31C44.37,57.73,46.67,64.51,50.86,72.71Z"/><path class="cls-4" d="M48.84,69.81c-.63-4,1.43-8,4.36-10.64s6.65-4.33,10.29-5.92l11.12-4.84c1.19-.51,2.49-1.14,3-2.34a3.36,3.36,0,0,0-1.06-3.66A6.47,6.47,0,0,0,72.81,41c-4.45-.41-8.85,1.49-12.34,4.28s-6.22,6.41-8.9,10C48.19,59.81,48.12,64.2,48.84,69.81Z"/><path class="cls-3" d="M14.64,16.14A7.37,7.37,0,0,1,15.82,14c2.32-3,5.56-2.94,9-2.72-.5-4.74,2.33-9.68,7.1-10.94A10,10,0,0,1,43.45,6.37,11.08,11.08,0,0,1,56,9.13a9.11,9.11,0,0,1,1.85,9c-1.19,3-4.67,5.07-7.79,4.21a9.33,9.33,0,0,1,5.41,9.16,9.09,9.09,0,0,1-16.81,3.91C36.19,38.89,29.93,41.8,26,39.18c-1.91-1.28-3.15-4-3.63-6.15-.18-.79-.74-6.56.52-6.73a7.88,7.88,0,0,1-7.7-3.79A7.92,7.92,0,0,1,14.64,16.14Z"/><circle class="cls-2" cx="37.04" cy="20.26" r="7.19"/><path class="cls-2" d="M44.23,35.81a5.89,5.89,0,0,1-.15-2c.3-3,2.48-4.31,4.84-5.6A8,8,0,0,1,49,17.94a7.91,7.91,0,0,1,10.3-.81,8.74,8.74,0,0,1,9.55-3.46,7.19,7.19,0,0,1,5,5.25A5.42,5.42,0,0,1,70.52,25a7.18,7.18,0,0,1,6.19,12.15,7.39,7.39,0,0,1-8.29,1.4c-.2,3.34-3.15,7.92-6.86,7.82a8.3,8.3,0,0,1-5-2.58c-.45-.44-3.25-4.07-2.49-4.71a6.06,6.06,0,0,1-9.81-3.29Z"/><circle class="cls-5" cx="62.03" cy="28.99" r="6.1"/></g></g></svg>